<svg xmlns="http://www.w3.org/2000/svg" viewBox="0 0 32 32"><defs><linearGradient id="bg-gradient" x1="0%" x2="100%" y1="0%" y2="100%"><stop offset="0%" style="stop-color:#8b5cf6"/><stop offset="100%" style="stop-color:#a855f7"/></linearGradient></defs><rect width="32" height="32" fill="url(#bg-gradient)" rx="8"/><g fill="none" stroke="#fff" stroke-linecap="round" stroke-linejoin="round" stroke-width="2"><path d="M12 3l1.5 3.5L17 8l-3.5 1.5L12 13l-1.5-3.5L7 8l3.5-1.5L12 3z" transform="translate(6, 6)"/><path d="M5 12l1 2 2 1-2 1-1 2-1-2-2-1 2-1 1-2z" transform="translate(6, 6)"/><path d="M17 14l0.75 1.5L19.25 16.25l-1.5 0.75L17 18.5l-0.75-1.5L14.75 16.25l1.5-0.75L17 14z" transform="translate(6, 6)"/></g></svg>